<svg xmlns="http://www.w3.org/2000/svg" 
version="1.1" 
xmlns:xlink="http://www.w3.org/1999/xlink" 
xmlns:svgjs="http://svgjs.dev/svgjs" 
width="1000" height="999" 
viewBox="0 0 1000 999">
<g transform="matrix(1,0,0,1,-0.2157434402332683,-0.21552769679306039)">
<svg viewBox="0 0 343 343" 
data-background-color="#ffffff"
preserveAspectRatio="xMidYMid meet" 
height="999" width="1000" 
xmlns="http://www.w3.org/2000/svg" 
xmlns:xlink="http://www.w3.org/1999/xlink">
<g id="tight-bounds" transform="matrix(1,0,0,1,0.07400000000001228,0.07400000000001228)">
<svg viewBox="0 0 342.8515585177538 342.8515585177538" 
height="342.8515585177538" width="342.8515585177538">
<g><svg></svg></g>
<g><svg viewBox="0 0 342.8515585177538 342.8515585177538" 
height="342.8515585177538" width="342.8515585177538">
<g><path d="M0 171.426c0-94.676 76.75-171.426 171.426-171.426 94.676 0 171.426 76.75 171.426 171.426 0 94.676-76.75 171.426-171.426 171.426-94.676 0-171.426-76.75-171.426-171.426zM171.426 318.003c80.952 0 146.577-65.625 146.577-146.577 0-80.952-65.625-146.577-146.577-146.578-80.952 0-146.577 65.625-146.578 146.578 0 80.952 65.625 146.577 146.578 146.577z" 
data-fill-palette-color="tertiary" fill="#7c35bf" stroke="transparent"></path>
<ellipse rx="164.56874808852183" ry="164.56874808852183" 
cx="171.4257792588769" cy="171.4257792588769" 
fill="#7c35bf" stroke="transparent" stroke-width="0" 
fill-opacity="1" data-fill-palette-color="tertiary"></ellipse></g>
<g transform="matrix(1,0,0,1,64.84655864529836,90.11560462849664)">
<svg viewBox="0 0 213.15844122715708 162.62034926076052" 
height="162.62034926076052" width="213.15844122715708"><g>
<svg viewBox="0 0 213.15844122715708 162.62034926076052" 
height="162.62034926076052" width="213.15844122715708"><g>
<svg viewBox="0 0 213.15844122715708 162.62034926076052" 
height="162.62034926076052" width="213.15844122715708">
<g id="textblocktransform">
<svg viewBox="0 0 213.15844122715708 162.62034926076052" 
height="162.62034926076052" width="213.15844122715708" 
id="textblock"><g><svg viewBox="0 0 213.15844122715708 162.62034926076052" 
height="162.62034926076052" width="213.15844122715708">
<g transform="matrix(1,0,0,1,0,0)">
<svg width="213.15844122715708" viewBox="3.5 -35.6 47.45 36.2"
height="162.62034926076052" data-palette-color="#ffffff">
<path d="M27.25 0.6L27.25 0.6Q24.55 0.6 22.4-0.65 20.25-1.9 19.03-4.08 17.8-6.25 17.8-9.15L17.8-9.15 17.8-26.55Q17.8-27.9 17.15-29 16.5-30.1 15.4-30.75 14.3-31.4 13-31.4L13-31.4Q11.7-31.4 10.63-30.75 9.55-30.1 8.93-29 8.3-27.9 8.3-26.55L8.3-26.55 8.3 0 3.5 0 3.5-25.9Q3.5-28.65 4.7-30.85 5.9-33.05 8.05-34.33 10.2-35.6 13-35.6L13-35.6Q15.85-35.6 18-34.33 20.15-33.05 21.35-30.85 22.55-28.65 22.55-25.9L22.55-25.9 22.55-8.5Q22.55-7.1 23.2-6.03 23.85-4.95 24.93-4.3 26-3.65 27.25-3.65L27.25-3.65Q28.5-3.65 29.55-4.3 30.6-4.95 31.23-6.03 31.85-7.1 31.85-8.5L31.85-8.5 31.85-25.9Q31.85-28.65 33.08-30.85 34.3-33.05 36.45-34.33 38.6-35.6 41.45-35.6L41.45-35.6Q44.25-35.6 46.4-34.33 48.55-33.05 49.75-30.85 50.95-28.65 50.95-25.9L50.95-25.9 50.95 0 46.15 0 46.15-26.55Q46.15-27.9 45.53-29 44.9-30.1 43.83-30.75 42.75-31.4 41.45-31.4L41.45-31.4Q40.1-31.4 39.03-30.75 37.95-30.1 37.3-29 36.65-27.9 36.65-26.55L36.65-26.55 36.65-9.15Q36.65-6.25 35.43-4.08 34.2-1.9 32.08-0.65 29.95 0.6 27.25 0.6Z" 
opacity="1" transform="matrix(1,0,0,1,0,0)" 
fill="#ffffff" class="wordmark-text-0" data-fill-palette-color="quaternary" id="text-0">
</path></svg></g></svg></g></svg></g></svg></g><g></g></svg></g></svg></g></svg></g><defs></defs></svg>
<rect width="342.8515585177538" height="342.8515585177538" fill="none" stroke="none" visibility="hidden">
</rect></g></svg></g></svg>